<mxfile host="app.diagrams.net" modified="2021-10-30T14:43:30.465Z" agent="5.0 (Windows)" etag="LvFCYS28YJ0XinOQL0Xh" version="15.5.2" type="github">
  <diagram name="Page-1" id="e7e014a7-5840-1c2e-5031-d8a46d1fe8dd">
    <mxGraphModel dx="1328" dy="923" grid="1" gridSize="10" guides="1" tooltips="1" connect="1" arrows="1" fold="1" page="1" pageScale="1" pageWidth="1169" pageHeight="826" background="none" math="0" shadow="0">
      <root>
        <mxCell id="0" />
        <mxCell id="1" parent="0" />
        <mxCell id="K8ONsZ2qzdu6_e_1s2cq-66" value="" style="shape=table;startSize=0;container=1;collapsible=0;childLayout=tableLayout;rounded=0;sketch=0;fillColor=#f5f5f5;strokeColor=#666666;fontColor=#333333;" vertex="1" parent="1">
          <mxGeometry x="200" y="120" width="840" height="440" as="geometry" />
        </mxCell>
        <mxCell id="K8ONsZ2qzdu6_e_1s2cq-67" value="" style="shape=partialRectangle;collapsible=0;dropTarget=0;pointerEvents=0;fillColor=none;top=0;left=0;bottom=0;right=0;points=[[0,0.5],[1,0.5]];portConstraint=eastwest;" vertex="1" parent="K8ONsZ2qzdu6_e_1s2cq-66">
          <mxGeometry width="840" height="56" as="geometry" />
        </mxCell>
        <mxCell id="K8ONsZ2qzdu6_e_1s2cq-68" value="/&lt;span style=&quot;white-space: pre&quot;&gt;	&lt;/span&gt;" style="shape=partialRectangle;html=1;whiteSpace=wrap;connectable=0;overflow=hidden;fillColor=none;top=0;left=0;bottom=0;right=0;pointerEvents=1;" vertex="1" parent="K8ONsZ2qzdu6_e_1s2cq-67">
          <mxGeometry width="230" height="56" as="geometry">
            <mxRectangle width="230" height="56" as="alternateBounds" />
          </mxGeometry>
        </mxCell>
        <mxCell id="K8ONsZ2qzdu6_e_1s2cq-69" value="Register a new user" style="shape=partialRectangle;html=1;whiteSpace=wrap;connectable=0;overflow=hidden;fillColor=none;top=0;left=0;bottom=0;right=0;pointerEvents=1;" vertex="1" parent="K8ONsZ2qzdu6_e_1s2cq-67">
          <mxGeometry x="230" width="331" height="56" as="geometry">
            <mxRectangle width="331" height="56" as="alternateBounds" />
          </mxGeometry>
        </mxCell>
        <mxCell id="K8ONsZ2qzdu6_e_1s2cq-70" value="" style="shape=partialRectangle;html=1;whiteSpace=wrap;connectable=0;overflow=hidden;fillColor=none;top=0;left=0;bottom=0;right=0;pointerEvents=1;" vertex="1" parent="K8ONsZ2qzdu6_e_1s2cq-67">
          <mxGeometry x="561" width="279" height="56" as="geometry">
            <mxRectangle width="279" height="56" as="alternateBounds" />
          </mxGeometry>
        </mxCell>
        <mxCell id="K8ONsZ2qzdu6_e_1s2cq-71" value="" style="shape=partialRectangle;collapsible=0;dropTarget=0;pointerEvents=0;fillColor=none;top=0;left=0;bottom=0;right=0;points=[[0,0.5],[1,0.5]];portConstraint=eastwest;" vertex="1" parent="K8ONsZ2qzdu6_e_1s2cq-66">
          <mxGeometry y="56" width="840" height="54" as="geometry" />
        </mxCell>
        <mxCell id="K8ONsZ2qzdu6_e_1s2cq-72" value="/login&lt;span style=&quot;white-space: pre&quot;&gt;&lt;/span&gt;&lt;span style=&quot;white-space: pre&quot;&gt;&lt;/span&gt;" style="shape=partialRectangle;html=1;whiteSpace=wrap;connectable=0;overflow=hidden;fillColor=none;top=0;left=0;bottom=0;right=0;pointerEvents=1;" vertex="1" parent="K8ONsZ2qzdu6_e_1s2cq-71">
          <mxGeometry width="230" height="54" as="geometry">
            <mxRectangle width="230" height="54" as="alternateBounds" />
          </mxGeometry>
        </mxCell>
        <mxCell id="K8ONsZ2qzdu6_e_1s2cq-73" value="&#xa;Login to the application&#xa;&#xa;" style="shape=partialRectangle;html=1;whiteSpace=wrap;connectable=0;overflow=hidden;fillColor=none;top=0;left=0;bottom=0;right=0;pointerEvents=1;" vertex="1" parent="K8ONsZ2qzdu6_e_1s2cq-71">
          <mxGeometry x="230" width="331" height="54" as="geometry">
            <mxRectangle width="331" height="54" as="alternateBounds" />
          </mxGeometry>
        </mxCell>
        <mxCell id="K8ONsZ2qzdu6_e_1s2cq-74" value="User can either login with email or phone number" style="shape=partialRectangle;html=1;whiteSpace=wrap;connectable=0;overflow=hidden;fillColor=none;top=0;left=0;bottom=0;right=0;pointerEvents=1;" vertex="1" parent="K8ONsZ2qzdu6_e_1s2cq-71">
          <mxGeometry x="561" width="279" height="54" as="geometry">
            <mxRectangle width="279" height="54" as="alternateBounds" />
          </mxGeometry>
        </mxCell>
        <mxCell id="K8ONsZ2qzdu6_e_1s2cq-75" value="" style="shape=partialRectangle;collapsible=0;dropTarget=0;pointerEvents=0;fillColor=none;top=0;left=0;bottom=0;right=0;points=[[0,0.5],[1,0.5]];portConstraint=eastwest;" vertex="1" parent="K8ONsZ2qzdu6_e_1s2cq-66">
          <mxGeometry y="110" width="840" height="56" as="geometry" />
        </mxCell>
        <mxCell id="K8ONsZ2qzdu6_e_1s2cq-76" value="/alerts&lt;span style=&quot;white-space: pre&quot;&gt;&lt;/span&gt;" style="shape=partialRectangle;html=1;whiteSpace=wrap;connectable=0;overflow=hidden;fillColor=none;top=0;left=0;bottom=0;right=0;pointerEvents=1;" vertex="1" parent="K8ONsZ2qzdu6_e_1s2cq-75">
          <mxGeometry width="230" height="56" as="geometry">
            <mxRectangle width="230" height="56" as="alternateBounds" />
          </mxGeometry>
        </mxCell>
        <mxCell id="K8ONsZ2qzdu6_e_1s2cq-77" value="Get alerts" style="shape=partialRectangle;html=1;whiteSpace=wrap;connectable=0;overflow=hidden;fillColor=none;top=0;left=0;bottom=0;right=0;pointerEvents=1;" vertex="1" parent="K8ONsZ2qzdu6_e_1s2cq-75">
          <mxGeometry x="230" width="331" height="56" as="geometry">
            <mxRectangle width="331" height="56" as="alternateBounds" />
          </mxGeometry>
        </mxCell>
        <mxCell id="K8ONsZ2qzdu6_e_1s2cq-78" value="Depending on user who logs in, this view shows summary by buildings with ability to drill down or summary of single apartment." style="shape=partialRectangle;html=1;whiteSpace=wrap;connectable=0;overflow=hidden;fillColor=none;top=0;left=0;bottom=0;right=0;pointerEvents=1;" vertex="1" parent="K8ONsZ2qzdu6_e_1s2cq-75">
          <mxGeometry x="561" width="279" height="56" as="geometry">
            <mxRectangle width="279" height="56" as="alternateBounds" />
          </mxGeometry>
        </mxCell>
        <mxCell id="K8ONsZ2qzdu6_e_1s2cq-79" value="" style="shape=partialRectangle;collapsible=0;dropTarget=0;pointerEvents=0;fillColor=none;top=0;left=0;bottom=0;right=0;points=[[0,0.5],[1,0.5]];portConstraint=eastwest;" vertex="1" parent="K8ONsZ2qzdu6_e_1s2cq-66">
          <mxGeometry y="166" width="840" height="54" as="geometry" />
        </mxCell>
        <mxCell id="K8ONsZ2qzdu6_e_1s2cq-80" value="/status" style="shape=partialRectangle;html=1;whiteSpace=wrap;connectable=0;overflow=hidden;fillColor=none;top=0;left=0;bottom=0;right=0;pointerEvents=1;" vertex="1" parent="K8ONsZ2qzdu6_e_1s2cq-79">
          <mxGeometry width="230" height="54" as="geometry">
            <mxRectangle width="230" height="54" as="alternateBounds" />
          </mxGeometry>
        </mxCell>
        <mxCell id="K8ONsZ2qzdu6_e_1s2cq-81" value="Get status of water tanks, sump tanks etc." style="shape=partialRectangle;html=1;whiteSpace=wrap;connectable=0;overflow=hidden;fillColor=none;top=0;left=0;bottom=0;right=0;pointerEvents=1;" vertex="1" parent="K8ONsZ2qzdu6_e_1s2cq-79">
          <mxGeometry x="230" width="331" height="54" as="geometry">
            <mxRectangle width="331" height="54" as="alternateBounds" />
          </mxGeometry>
        </mxCell>
        <mxCell id="K8ONsZ2qzdu6_e_1s2cq-82" value="&lt;div&gt;Depending on user who logs in, this view shows summary of buildings with ability to drill down or summary of a single apartment.&lt;/div&gt;" style="shape=partialRectangle;html=1;whiteSpace=wrap;connectable=0;overflow=hidden;fillColor=none;top=0;left=0;bottom=0;right=0;pointerEvents=1;" vertex="1" parent="K8ONsZ2qzdu6_e_1s2cq-79">
          <mxGeometry x="561" width="279" height="54" as="geometry">
            <mxRectangle width="279" height="54" as="alternateBounds" />
          </mxGeometry>
        </mxCell>
        <mxCell id="K8ONsZ2qzdu6_e_1s2cq-83" style="shape=partialRectangle;collapsible=0;dropTarget=0;pointerEvents=0;fillColor=none;top=0;left=0;bottom=0;right=0;points=[[0,0.5],[1,0.5]];portConstraint=eastwest;" vertex="1" parent="K8ONsZ2qzdu6_e_1s2cq-66">
          <mxGeometry y="220" width="840" height="56" as="geometry" />
        </mxCell>
        <mxCell id="K8ONsZ2qzdu6_e_1s2cq-84" value="/register" style="shape=partialRectangle;html=1;whiteSpace=wrap;connectable=0;overflow=hidden;fillColor=none;top=0;left=0;bottom=0;right=0;pointerEvents=1;" vertex="1" parent="K8ONsZ2qzdu6_e_1s2cq-83">
          <mxGeometry width="230" height="56" as="geometry">
            <mxRectangle width="230" height="56" as="alternateBounds" />
          </mxGeometry>
        </mxCell>
        <mxCell id="K8ONsZ2qzdu6_e_1s2cq-85" value="&#xa;Register a new user&#xa;&#xa;" style="shape=partialRectangle;html=1;whiteSpace=wrap;connectable=0;overflow=hidden;fillColor=none;top=0;left=0;bottom=0;right=0;pointerEvents=1;" vertex="1" parent="K8ONsZ2qzdu6_e_1s2cq-83">
          <mxGeometry x="230" width="331" height="56" as="geometry">
            <mxRectangle width="331" height="56" as="alternateBounds" />
          </mxGeometry>
        </mxCell>
        <mxCell id="K8ONsZ2qzdu6_e_1s2cq-86" style="shape=partialRectangle;html=1;whiteSpace=wrap;connectable=0;overflow=hidden;fillColor=none;top=0;left=0;bottom=0;right=0;pointerEvents=1;" vertex="1" parent="K8ONsZ2qzdu6_e_1s2cq-83">
          <mxGeometry x="561" width="279" height="56" as="geometry">
            <mxRectangle width="279" height="56" as="alternateBounds" />
          </mxGeometry>
        </mxCell>
        <mxCell id="K8ONsZ2qzdu6_e_1s2cq-87" style="shape=partialRectangle;collapsible=0;dropTarget=0;pointerEvents=0;fillColor=none;top=0;left=0;bottom=0;right=0;points=[[0,0.5],[1,0.5]];portConstraint=eastwest;" vertex="1" parent="K8ONsZ2qzdu6_e_1s2cq-66">
          <mxGeometry y="276" width="840" height="54" as="geometry" />
        </mxCell>
        <mxCell id="K8ONsZ2qzdu6_e_1s2cq-88" value="/buildings" style="shape=partialRectangle;html=1;whiteSpace=wrap;connectable=0;overflow=hidden;fillColor=none;top=0;left=0;bottom=0;right=0;pointerEvents=1;" vertex="1" parent="K8ONsZ2qzdu6_e_1s2cq-87">
          <mxGeometry width="230" height="54" as="geometry">
            <mxRectangle width="230" height="54" as="alternateBounds" />
          </mxGeometry>
        </mxCell>
        <mxCell id="K8ONsZ2qzdu6_e_1s2cq-89" value="Manage buildings" style="shape=partialRectangle;html=1;whiteSpace=wrap;connectable=0;overflow=hidden;fillColor=none;top=0;left=0;bottom=0;right=0;pointerEvents=1;" vertex="1" parent="K8ONsZ2qzdu6_e_1s2cq-87">
          <mxGeometry x="230" width="331" height="54" as="geometry">
            <mxRectangle width="331" height="54" as="alternateBounds" />
          </mxGeometry>
        </mxCell>
        <mxCell id="K8ONsZ2qzdu6_e_1s2cq-90" value="Users can add, remove and view buildings depending on registration type." style="shape=partialRectangle;html=1;whiteSpace=wrap;connectable=0;overflow=hidden;fillColor=none;top=0;left=0;bottom=0;right=0;pointerEvents=1;" vertex="1" parent="K8ONsZ2qzdu6_e_1s2cq-87">
          <mxGeometry x="561" width="279" height="54" as="geometry">
            <mxRectangle width="279" height="54" as="alternateBounds" />
          </mxGeometry>
        </mxCell>
        <mxCell id="K8ONsZ2qzdu6_e_1s2cq-91" style="shape=partialRectangle;collapsible=0;dropTarget=0;pointerEvents=0;fillColor=none;top=0;left=0;bottom=0;right=0;points=[[0,0.5],[1,0.5]];portConstraint=eastwest;" vertex="1" parent="K8ONsZ2qzdu6_e_1s2cq-66">
          <mxGeometry y="330" width="840" height="56" as="geometry" />
        </mxCell>
        <mxCell id="K8ONsZ2qzdu6_e_1s2cq-92" value="/buildings/{:id}/apartments" style="shape=partialRectangle;html=1;whiteSpace=wrap;connectable=0;overflow=hidden;fillColor=none;top=0;left=0;bottom=0;right=0;pointerEvents=1;" vertex="1" parent="K8ONsZ2qzdu6_e_1s2cq-91">
          <mxGeometry width="230" height="56" as="geometry">
            <mxRectangle width="230" height="56" as="alternateBounds" />
          </mxGeometry>
        </mxCell>
        <mxCell id="K8ONsZ2qzdu6_e_1s2cq-93" value="Manage apartments within a building" style="shape=partialRectangle;html=1;whiteSpace=wrap;connectable=0;overflow=hidden;fillColor=none;top=0;left=0;bottom=0;right=0;pointerEvents=1;" vertex="1" parent="K8ONsZ2qzdu6_e_1s2cq-91">
          <mxGeometry x="230" width="331" height="56" as="geometry">
            <mxRectangle width="331" height="56" as="alternateBounds" />
          </mxGeometry>
        </mxCell>
        <mxCell id="K8ONsZ2qzdu6_e_1s2cq-94" value="Users can add, remove and view apartments depending on registration type." style="shape=partialRectangle;html=1;whiteSpace=wrap;connectable=0;overflow=hidden;fillColor=none;top=0;left=0;bottom=0;right=0;pointerEvents=1;" vertex="1" parent="K8ONsZ2qzdu6_e_1s2cq-91">
          <mxGeometry x="561" width="279" height="56" as="geometry">
            <mxRectangle width="279" height="56" as="alternateBounds" />
          </mxGeometry>
        </mxCell>
        <mxCell id="K8ONsZ2qzdu6_e_1s2cq-95" style="shape=partialRectangle;collapsible=0;dropTarget=0;pointerEvents=0;fillColor=none;top=0;left=0;bottom=0;right=0;points=[[0,0.5],[1,0.5]];portConstraint=eastwest;" vertex="1" parent="K8ONsZ2qzdu6_e_1s2cq-66">
          <mxGeometry y="386" width="840" height="54" as="geometry" />
        </mxCell>
        <mxCell id="K8ONsZ2qzdu6_e_1s2cq-96" value="/buildings/{:id}/apartments/{:id}&lt;span style=&quot;white-space: pre&quot;&gt;	&lt;/span&gt;" style="shape=partialRectangle;html=1;whiteSpace=wrap;connectable=0;overflow=hidden;fillColor=none;top=0;left=0;bottom=0;right=0;pointerEvents=1;" vertex="1" parent="K8ONsZ2qzdu6_e_1s2cq-95">
          <mxGeometry width="230" height="54" as="geometry">
            <mxRectangle width="230" height="54" as="alternateBounds" />
          </mxGeometry>
        </mxCell>
        <mxCell id="K8ONsZ2qzdu6_e_1s2cq-97" value="Get summary of this apartment" style="shape=partialRectangle;html=1;whiteSpace=wrap;connectable=0;overflow=hidden;fillColor=none;top=0;left=0;bottom=0;right=0;pointerEvents=1;" vertex="1" parent="K8ONsZ2qzdu6_e_1s2cq-95">
          <mxGeometry x="230" width="331" height="54" as="geometry">
            <mxRectangle width="331" height="54" as="alternateBounds" />
          </mxGeometry>
        </mxCell>
        <mxCell id="K8ONsZ2qzdu6_e_1s2cq-98" value="Get status of the apartment" style="shape=partialRectangle;html=1;whiteSpace=wrap;connectable=0;overflow=hidden;fillColor=none;top=0;left=0;bottom=0;right=0;pointerEvents=1;" vertex="1" parent="K8ONsZ2qzdu6_e_1s2cq-95">
          <mxGeometry x="561" width="279" height="54" as="geometry">
            <mxRectangle width="279" height="54" as="alternateBounds" />
          </mxGeometry>
        </mxCell>
      </root>
    </mxGraphModel>
  </diagram>
</mxfile>
